<?xml version="1.0" standalone="no"?>
<!DOCTYPE svg PUBLIC "-//W3C//DTD SVG 20010904//EN"
 "http://www.w3.org/TR/2001/REC-SVG-20010904/DTD/svg10.dtd">
<svg version="1.0" xmlns="http://www.w3.org/2000/svg"
 width="512.000000pt" height="512.000000pt" viewBox="0 0 512.000000 512.000000"
 preserveAspectRatio="xMidYMid meet">

<g transform="translate(0.000000,512.000000) scale(0.100000,-0.100000)"
fill="#000000" stroke="none">
<path d="M3495 4245 c-100 -27 -253 -97 -384 -176 -56 -35 -68 -38 -95 -30
-31 9 -119 24 -225 37 -86 10 -427 7 -526 -6 -101 -12 -221 -38 -248 -52 -15
-8 -33 0 -87 36 -172 114 -340 184 -467 193 l-73 6 -15 -37 c-52 -124 -68
-314 -40 -470 l17 -95 -44 -58 c-138 -181 -178 -305 -178 -553 0 -129 19 -284
45 -380 8 -30 15 -58 15 -62 0 -5 -33 -8 -74 -8 -179 0 -640 -44 -739 -71 -22
-6 -37 -15 -34 -22 5 -13 6 -13 132 8 127 21 375 43 567 51 l165 7 10 -29 c6
-16 14 -36 17 -45 6 -14 -11 -17 -136 -22 -223 -10 -361 -35 -666 -120 -78
-21 -103 -38 -69 -45 8 -2 70 13 138 32 244 68 388 93 610 103 l146 6 40 -59
c144 -212 399 -352 733 -403 41 -7 90 -14 108 -17 l34 -5 -51 -54 c-53 -56
-101 -142 -101 -182 0 -50 -131 -88 -276 -80 -146 8 -187 32 -306 180 -149
185 -200 221 -315 222 -118 0 -123 -34 -15 -112 90 -65 133 -120 194 -245 88
-181 153 -247 291 -296 64 -23 87 -26 207 -26 74 0 147 3 163 7 l27 7 2 -120
c4 -333 5 -323 -19 -360 -12 -18 -50 -57 -85 -85 -71 -57 -80 -84 -33 -97 98
-29 287 47 338 135 8 16 13 116 17 352 5 329 5 331 30 380 53 101 53 94 47
-341 -6 -446 -9 -468 -74 -543 -43 -51 -37 -74 21 -79 73 -6 192 69 241 152
39 66 47 148 52 531 l5 361 28 2 29 2 3 -397 c3 -390 4 -399 27 -457 28 -71
78 -121 164 -165 47 -24 74 -32 103 -29 54 4 57 34 10 102 -73 107 -71 89 -74
519 -3 370 -2 389 15 385 10 -1 27 -21 38 -43 18 -37 20 -66 25 -365 5 -324 5
-325 30 -370 29 -51 100 -104 163 -121 67 -18 174 -16 194 3 15 16 14 19 -17
45 -90 76 -124 111 -136 140 -11 25 -14 107 -14 362 0 360 -8 442 -55 538 -15
29 -49 72 -77 97 -31 29 -45 47 -37 50 8 2 57 10 109 16 204 26 411 93 532
173 76 51 176 159 213 231 l30 58 120 -6 c218 -10 458 -48 684 -107 77 -20
117 -27 124 -20 13 13 -9 21 -135 55 -194 52 -448 92 -650 103 -127 7 -126 6
-106 63 l11 33 221 -6 c246 -7 352 -18 536 -52 78 -14 129 -19 135 -13 17 15
-11 24 -144 47 -196 34 -269 41 -514 48 -185 5 -227 9 -223 20 3 7 13 52 23
100 14 68 18 136 17 298 0 185 -3 220 -22 289 -31 111 -89 227 -162 321 l-61
80 8 75 c15 145 9 308 -15 387 -12 39 -29 79 -38 87 -19 19 -80 20 -149 1z
m-930 -1070 c154 1 357 3 450 5 143 4 180 2 234 -13 256 -72 392 -267 378
-542 -8 -158 -53 -264 -152 -361 -121 -119 -297 -179 -565 -194 -192 -10 -689
-4 -796 10 -287 39 -497 157 -588 329 -134 256 -57 558 179 697 114 67 213 85
420 76 88 -4 286 -7 440 -7z m-1376 -1159 c10 -12 8 -17 -8 -25 -23 -13 -51
-5 -51 14 0 25 42 32 59 11z m109 -68 c3 -14 -3 -18 -27 -18 -29 0 -41 17 -24
34 13 13 48 1 51 -16z m67 -78 c0 -18 -43 -26 -57 -12 -16 16 2 33 30 30 16
-2 27 -9 27 -18z m60 -90 c0 -18 -43 -26 -57 -12 -16 16 2 33 30 30 16 -2 27
-9 27 -18z m60 -80 c0 -9 -11 -16 -27 -18 -27 -3 -38 14 -21 32 12 12 48 2 48
-14z m90 -70 c0 -16 -28 -25 -50 -16 -9 3 -12 12 -9 21 8 21 59 16 59 -5z
m373 -27 c-2 -12 -12 -18 -28 -18 -16 0 -26 6 -28 18 -3 13 3 17 28 17 25 0
31 -4 28 -17z m-250 -22 c-4 -22 -52 -21 -56 1 -2 9 4 18 15 20 27 6 44 -3 41
-21z m129 -4 c-5 -16 -47 -21 -61 -7 -17 18 21 42 46 29 11 -6 17 -16 15 -22z"/>
<path d="M1882 2960 c-82 -59 -127 -178 -120 -317 16 -301 306 -385 408 -116
45 117 22 295 -48 383 -47 58 -88 80 -147 80 -42 0 -60 -6 -93 -30z"/>
<path d="M3062 2960 c-81 -58 -127 -180 -120 -316 9 -162 100 -279 217 -277
125 2 213 124 214 298 1 136 -47 245 -132 302 -51 35 -126 32 -179 -7z"/>
<path d="M2515 2434 c-21 -21 -16 -63 10 -80 16 -11 25 -11 45 -1 46 23 31 97
-20 97 -10 0 -26 -7 -35 -16z"/>
<path d="M2427 2283 c-24 -24 34 -95 89 -109 67 -17 158 34 152 84 -4 28 -22
30 -26 3 -8 -52 -94 -76 -150 -42 -18 12 -37 32 -42 46 -10 27 -13 29 -23 18z"/>
<path d="M1037 1834 c-19 -70 -13 -94 23 -94 36 0 42 24 23 94 -9 36 -20 66
-23 66 -3 0 -14 -30 -23 -66z"/>
</g>
</svg>
